<svg version="1.1" xmlns="http://www.w3.org/2000/svg"
     viewBox="0 0 115 115" width="115" height="115">

<style type="text/css">
	.st1{fill:#FFFFFF;}
</style>

<!-- Centered without scaling -->
<g transform="translate(0,0)">
	<g>
		<path class="st1" d="M70.7,48.1c-7.4,0-13.8,4.1-17.2,10.1l3.4,1.3c2.8-4.7,7.9-7.9,13.8-7.9c8.9,0,16,7.2,16,16
			c0,8.9-7.2,16-16,16c-2.1,0-4.2-0.4-6.1-1.2c3.3-2.7,5.8-6.3,7.3-10.3l-6.6-2.5c-2.4,6.6-8.8,11.3-16.2,11.3
			c-9.5,0-17.3-7.7-17.3-17.3c0-9.5,7.7-17.3,17.3-17.3c1.6,0,3.1,0.2,4.5,0.6c2.2-1.9,4.8-3.4,7.6-4.4c-3.6-2.1-7.7-3.2-12.1-3.2
			c-13.4,0-24.3,10.9-24.3,24.3c0,13.4,10.9,24.3,24.3,24.3c4.4,0,8.6-1.2,12.2-3.3c2.8,1.5,6,2.4,9.4,2.4
			c10.8,0,19.6-8.8,19.6-19.6C90.3,56.9,81.5,48.1,70.7,48.1"/>
		<path class="st1" d="M70.7,26.8c-1.5,0-3,0.1-4.5,0.2l0.4,3.5c1.3-0.1,2.7-0.2,4.1-0.2c11,0,20.8,4.7,27.7,12.3l2.6-2.4
			C93.5,32,82.7,26.8,70.7,26.8"/>
		<path class="st1" d="M70.7,37.5c-1.1,0-2.2,0.1-3.3,0.2l0.4,3.5c1-0.1,1.9-0.2,2.9-0.2c7.9,0,14.9,3.4,19.8,8.8l2.6-2.4
			C87.6,41.3,79.6,37.5,70.7,37.5"/>
	</g>
</g>
</svg>